<svg viewBox="0 0 139.66 184.39" class="css-1blbz7"><defs><style>.b{fill:#fff;}</style></defs><path class="b" d="M43.74,32.77l42.58,14.82,1.36,.47,.51-.73c7.82-11.16,6.73-25.35-.84-35.16L55.26,.97c-1.87-.64-3.81-.97-5.78-.97-7.22,0-13.5,4.2-16,10.69-1.67,4.33-1.51,9.03,.44,13.23,1.95,4.2,5.44,7.34,9.82,8.85Z"></path><path class="b" d="M43.74,151.61l42.58-14.82,1.36-.47,.51,.73c7.82,11.16,6.73,25.35-.84,35.16l-32.08,11.2c-1.87,.64-3.81,.97-5.78,.97-7.22,0-13.5-4.2-16-10.69-1.67-4.33-1.51-9.03,.44-13.23,1.95-4.2,5.44-7.34,9.82-8.85Z"></path><path class="b" d="M137.92,149.66c1.14-2.32,1.74-4.91,1.74-7.48,0-3.49-1.06-6.85-3.06-9.7l-21.67-30.94c-3.92-5.59-3.92-13.11,0-18.71l21.67-30.94c3.03-4.32,3.86-9.9,2.23-14.92-1.63-5.02-5.58-9.05-10.57-10.77l-29.93-10.32c.78,1.56,1.45,3.19,2,4.88,3.38,10.4,1.71,21.51-4.56,30.47l-3.47,4.95-18.42,26.3c-4.06,5.8-4.06,13.6,0,19.4l18.42,26.3,3.47,4.95c6.27,8.96,7.94,20.06,4.56,30.47-.55,1.69-1.22,3.32-2,4.88l29.46-10.16c4.5-1.55,8.19-4.71,10.13-8.67Z"></path><circle class="b" cx="22.92" cy="90.85" r="22.92"></circle></svg>